<?xml version="1.0" encoding="utf-8"?>
<!-- Generator: Adobe Illustrator 22.0.0, SVG Export Plug-In . SVG Version: 6.00 Build 0)  -->
<svg version="1.1" id="Capa_1" xmlns="http://www.w3.org/2000/svg" xmlns:xlink="http://www.w3.org/1999/xlink" x="0px" y="0px"
	 viewBox="0 0 512 512" style="enable-background:new 0 0 512 512;" xml:space="preserve">
<style type="text/css">
	.st0{fill:#ECEAEC;}
	.st1{fill:#5D5360;}
	.st2{fill:#8BB3EA;}
	.st3{fill:#739AD6;}
	.st4{fill:#DAD8DB;}
	.st5{fill:#4B3F4E;}
	.st6{fill:#C8C5C9;}
	.st7{fill:#FFFFFF;}
</style>
<path class="st0" d="M482,139l-431.3-0.4c-4.6,0-8.3,3.7-8.3,8.3l-0.1,58.1l439.6,0.4c4.6,0,8.3-3.7,8.3-8.3l0-49.8
	C490.3,142.7,486.6,139,482,139L482,139z"/>
<path class="st0" d="M490.2,197.1l0-49.8l-58-8.3l-66.3-0.1L316,153.3l-16.5-14.5l-66.3-0.1l-41.4,8.8l-24.9-8.8l-66.3-0.1l-34.1,11
	l-24,55.3l58.1,0.1l43-9.5l23.4,9.6l66.3,0.1l48-11.5l18.4,11.6l66.3,0.1l46.6-11.5l19.7,11.6l49.8,0
	C486.5,205.3,490.2,201.6,490.2,197.1L490.2,197.1z"/>
<g>
	<path class="st1" d="M166.8,138.7L100.4,205l66.3,0.1l66.4-66.3L166.8,138.7z"/>
	<path class="st1" d="M299.5,138.8l-66.4,66.3l66.3,0.1l66.4-66.3L299.5,138.8z"/>
	<path class="st1" d="M482,139l-49.8,0l-66.4,66.3l66.3,0.1l58.1-58C490.3,142.7,486.6,139,482,139z"/>
</g>
<path class="st2" d="M482,503.7H63.7c-4.6,0-8.3-3.7-8.3-8.3V263.2h422.3l12.6,8.3v223.9C490.3,500,486.5,503.7,482,503.7L482,503.7
	z"/>
<path class="st3" d="M59,453.9V263.2l-16.6,8.3v232.2c0,4.6,3.7,8.3,8.3,8.3H482c4.6,0,8.3-3.7,8.3-8.3v-8.3H100.5
	C77.6,495.4,59,476.8,59,453.9L59,453.9z"/>
<path class="st0" d="M482,205.1H42.4v66.3h447.8v-58.1C490.3,208.9,486.5,205.1,482,205.1L482,205.1z"/>
<path class="st0" d="M490.3,271.5h-58.1L420,257l-54.2,14.5h-66.3L286,257l-52.8,14.5h-66.3L151.7,257l-51.2,14.5H59l-16.6-66.3
	h124.4l23.7,13.4l42.7-13.4h66.3l25,13.4l41.3-13.4h66.3l58.1,8.3L490.3,271.5z"/>
<path class="st1" d="M166.8,205.1l-66.3,66.3h66.3l66.3-66.3L166.8,205.1z"/>
<path class="st1" d="M299.5,205.1l-66.3,66.3h66.3l66.3-66.3L299.5,205.1z"/>
<path class="st1" d="M482,205.1h-49.8l-66.3,66.3h66.3l58.1-58.1C490.3,208.9,486.5,205.1,482,205.1L482,205.1z"/>
<path class="st4" d="M42.4,205.1H59v66.3H42.4V205.1z"/>
<path class="st1" d="M59,138.6l-5.6,19.7l5.6,21.8l41.5-41.4L59,138.6z"/>
<path class="st5" d="M59,138.6l-8.3,0c-4.6,0-8.3,3.7-8.3,8.3l0,49.8L59,180.1L59,138.6z"/>
<path class="st6" d="M59,246.6c-13.7,0-24.9-11.1-24.9-24.9v-24.9c0-13.7,11.1-24.9,24.9-24.9s24.9,11.1,24.9,24.9v24.9
	C83.9,235.5,72.7,246.6,59,246.6z"/>
<path class="st7" d="M423.9,362.7H108.8c-4.6,0-8.3-3.7-8.3-8.3v-8.3c0-4.6,3.7-8.3,8.3-8.3h315.2c4.6,0,8.3,3.7,8.3,8.3v8.3
	C432.2,359,428.5,362.7,423.9,362.7z"/>
<path class="st7" d="M423.9,437.4H108.8c-4.6,0-8.3-3.7-8.3-8.3v-8.3c0-4.6,3.7-8.3,8.3-8.3h315.2c4.6,0,8.3,3.7,8.3,8.3v8.3
	C432.2,433.6,428.5,437.4,423.9,437.4z"/>
</svg>
