<?xml version="1.0" encoding="utf-8"?>
<!-- Generator: Adobe Illustrator 22.0.0, SVG Export Plug-In . SVG Version: 6.00 Build 0)  -->
<svg version="1.1" id="Capa_1" xmlns="http://www.w3.org/2000/svg" xmlns:xlink="http://www.w3.org/1999/xlink" x="0px" y="0px"
	 viewBox="0 0 90 90" style="enable-background:new 0 0 90 90;" xml:space="preserve">
<style type="text/css">
	.st0{fill:#ECEAEC;}
	.st1{fill:#5D5360;}
	.st2{fill:#DAD8DB;}
	.st3{fill:#4B3F4E;}
	.st4{fill:#C8C5C9;}
</style>
<path class="st0" d="M77.3,27L11,27.3c-0.7,0-1.3,0.6-1.3,1.3l0,8.9l67.6-0.2c0.7,0,1.3-0.6,1.3-1.3l0-7.6C78.6,27.6,78,27,77.3,27
	L77.3,27z"/>
<path class="st0" d="M78.6,36l0-7.6l-8.9-1.2l-10.2,0l-7.7,2.2l-2.5-2.2l-10.2,0l-6.4,1.4l-3.8-1.3l-10.2,0L13.5,29l-3.6,8.5l8.9,0
	l6.6-1.5l3.6,1.5l10.2,0l7.4-1.8l2.8,1.8l10.2,0l7.2-1.8l3,1.8l7.6,0C78.1,37.2,78.7,36.7,78.6,36L78.6,36z"/>
<g>
	<path class="st1" d="M28.9,27.2L18.7,37.4l10.2,0l10.2-10.2L28.9,27.2z"/>
	<path class="st1" d="M49.3,27.1L39.1,37.4l10.2,0l10.2-10.2L49.3,27.1z"/>
	<path class="st1" d="M77.3,27l-7.6,0L59.5,37.3l10.2,0l8.9-9C78.6,27.6,78,27,77.3,27z"/>
</g>
<path class="st0" d="M77.4,83.2H13.1c-0.7,0-1.3-0.6-1.3-1.3V46.2h64.9l1.9,1.3v34.4C78.6,82.6,78.1,83.2,77.4,83.2L77.4,83.2z"/>
<path class="st2" d="M12.3,75.6V46.2l-2.5,1.3v35.7c0,0.7,0.6,1.3,1.3,1.3h66.3c0.7,0,1.3-0.6,1.3-1.3v-1.3H18.7
	C15.2,81.9,12.3,79.1,12.3,75.6L12.3,75.6z"/>
<path class="st0" d="M77.4,37.3H9.8v10.2h68.8v-8.9C78.6,37.9,78.1,37.3,77.4,37.3L77.4,37.3z"/>
<path class="st0" d="M78.6,47.5h-8.9l-1.9-2.2l-8.3,2.2H49.3l-2.1-2.2l-8.1,2.2H28.9l-2.3-2.2l-7.9,2.2h-6.4L9.8,37.3h19.1l3.6,2.1
	l6.6-2.1h10.2l3.8,2.1l6.4-2.1h10.2l8.9,1.3L78.6,47.5z"/>
<path class="st1" d="M28.9,37.3L18.7,47.5h10.2l10.2-10.2L28.9,37.3z"/>
<path class="st1" d="M49.3,37.3L39.1,47.5h10.2l10.2-10.2L49.3,37.3z"/>
<path class="st1" d="M77.4,37.3h-7.6L59.5,47.5h10.2l8.9-8.9C78.6,37.9,78.1,37.3,77.4,37.3L77.4,37.3z"/>
<path class="st2" d="M9.8,37.3h2.5v10.2H9.8V37.3z"/>
<path class="st1" d="M12.3,27.3l-0.9,3l0.9,3.3l6.4-6.4L12.3,27.3z"/>
<path class="st3" d="M12.3,27.3l-1.3,0c-0.7,0-1.3,0.6-1.3,1.3l0,7.6l2.5-2.6L12.3,27.3z"/>
<path class="st4" d="M12.3,43.7c-2.1,0-3.8-1.7-3.8-3.8V36c0-2.1,1.7-3.8,3.8-3.8s3.8,1.7,3.8,3.8v3.8C16.2,42,14.4,43.7,12.3,43.7z
	"/>
<path class="st1" d="M68.4,61.5H20c-0.7,0-1.3-0.6-1.3-1.3V59c0-0.7,0.6-1.3,1.3-1.3h48.4c0.7,0,1.3,0.6,1.3,1.3v1.3
	C69.7,61,69.1,61.5,68.4,61.5z"/>
<path class="st1" d="M68.4,73H20c-0.7,0-1.3-0.6-1.3-1.3v-1.3c0-0.7,0.6-1.3,1.3-1.3h48.4c0.7,0,1.3,0.6,1.3,1.3v1.3
	C69.7,72.4,69.1,73,68.4,73z"/>
</svg>
