<?xml version="1.0" encoding="utf-8"?>
<!-- Generator: Adobe Illustrator 22.0.0, SVG Export Plug-In . SVG Version: 6.00 Build 0)  -->
<svg version="1.1" id="Layer_1" xmlns="http://www.w3.org/2000/svg" xmlns:xlink="http://www.w3.org/1999/xlink" x="0px" y="0px"
	 viewBox="0 0 512 512" style="enable-background:new 0 0 512 512;" xml:space="preserve">
<style type="text/css">
	.st0{fill:#263740;}
	.st1{fill:#1E2C33;}
	.st2{fill:#F5F5F5;}
	.st3{fill:#242424;}
	.st4{fill:#FFD464;}
	.st5{fill:#D9D9D9;}
</style>
<g>
	<path class="st0" d="M412,228v174.1c0,13.2-10.8,25.9-24,25.9H124c-13.2,0-24-12.7-24-25.9V228H412z"/>
	<path class="st1" d="M400,228v174.1c0,13.2-10.8,25.9-24,25.9h12c13.2,0,24-12.7,24-25.9V228H400z"/>
	<path class="st2" d="M248,334.1c0-6.6,4.6-9.2,10.2-5.7l31.6,19.4c5.6,3.5,5.6,9.1,0,12.6l-31.6,19.4c-5.6,3.5-10.2,0.9-10.2-5.7
		V334.1z"/>
	<path class="st3" d="M118.9,227.3l292.9,0.6l0.1-52c0-13.2-10.8-24-24-24.1l-242.4-0.5L118.9,227.3z"/>
	<polygon class="st4" points="241.3,227.6 286.5,227.7 210.7,151.5 165.4,151.4 	"/>
	<polygon class="st4" points="298.7,151.7 253.4,151.6 329.3,227.8 374.5,227.8 	"/>
	<polygon class="st4" points="341.3,151.5 412,222.1 411.9,176.8 386.5,151.5 	"/>
	<g>
		<rect x="100" y="228" class="st3" width="312" height="64"/>
		<g>
			<polygon class="st4" points="374.6,228 329.4,228 265.4,292 310.6,292 			"/>
			<polygon class="st4" points="398.6,292 412,276.7 412,231.5 353.4,292 			"/>
			<polygon class="st4" points="177.4,292 222.6,292 286.6,228 241.4,228 			"/>
		</g>
	</g>
	<path class="st0" d="M120.3,150.4c-11.5,1.8-20.3,11.7-20.3,23.7v52V292h32l64-65l0,0L120.3,150.4z"/>
	<path class="st5" d="M120.3,150.4c-2.2,0.3-4.2,1-6.1,1.9L188,227l0,0l-64,65h8l64-65l0,0L120.3,150.4z"/>
	<circle class="st2" cx="136" cy="226.1" r="20"/>
	<circle class="st0" cx="136" cy="226.1" r="12"/>
	<rect x="100" y="292" class="st5" width="312" height="8"/>
</g>
</svg>
