<?xml version="1.0" encoding="utf-8"?>
<!-- Generator: Adobe Illustrator 22.0.0, SVG Export Plug-In . SVG Version: 6.00 Build 0)  -->
<svg version="1.1" id="Capa_1" xmlns="http://www.w3.org/2000/svg" xmlns:xlink="http://www.w3.org/1999/xlink" x="0px" y="0px"
	 viewBox="0 0 90 90" style="enable-background:new 0 0 90 90;" xml:space="preserve">
<style type="text/css">
	.st0{fill:#ECEAEC;}
	.st1{fill:#5D5360;}
	.st2{fill:#DAD8DB;}
	.st3{fill:#4B3F4E;}
	.st4{fill:#C8C5C9;}
</style>
<path class="st0" d="M69.4,0.1L9.2,28.1c-0.6,0.3-0.9,1.1-0.6,1.7l3.8,8.1L73.7,9.4c0.6-0.3,0.9-1.1,0.6-1.7l-3.2-6.9
	C70.8,0.1,70-0.2,69.4,0.1L69.4,0.1z"/>
<path class="st0" d="M74.3,7.7l-3.2-6.9l-8.6,2.6l-9.3,4.3l-6,5.2l-3.2-0.9l-9.3,4.3l-5.2,3.9l-4,0.4l-9.3,4.3l-4,3.7l0.2,9.3
	l8.1-3.8l5.4-4.1l3.9-0.2l9.3-4.3l5.9-4.7l3.3,0.4l9.3-4.3l5.8-4.6l3.5,0.3l6.9-3.2C74.3,9.1,74.6,8.3,74.3,7.7L74.3,7.7z"/>
<g>
	<path class="st1" d="M25.4,20.5l-5,13.5l9.3-4.3l5-13.5L25.4,20.5z"/>
	<path class="st1" d="M43.9,11.9l-5,13.5l9.3-4.3l5-13.5L43.9,11.9z"/>
	<path class="st1" d="M69.4,0.1l-6.9,3.2l-5,13.5l9.3-4.3l4.3-11.9C70.8,0.1,70-0.2,69.4,0.1z"/>
</g>
<path class="st0" d="M77.4,83.2H13.1c-0.7,0-1.3-0.6-1.3-1.3V46.2h64.9l1.9,1.3v34.4C78.6,82.6,78.1,83.2,77.4,83.2L77.4,83.2z"/>
<path class="st2" d="M12.3,75.6V46.2l-2.5,1.3v35.7c0,0.7,0.6,1.3,1.3,1.3h66.3c0.7,0,1.3-0.6,1.3-1.3v-1.3H18.7
	C15.2,81.9,12.3,79.1,12.3,75.6L12.3,75.6z"/>
<path class="st0" d="M77.4,37.3H9.8v10.2h68.8v-8.9C78.6,37.9,78.1,37.3,77.4,37.3L77.4,37.3z"/>
<path class="st0" d="M78.6,47.5h-8.9l-1.9-2.2l-8.3,2.2H49.3l-2.1-2.2l-8.1,2.2H28.9l-2.3-2.2l-7.9,2.2h-6.4L9.8,37.3h19.1l3.6,2.1
	l6.6-2.1h10.2l3.8,2.1l6.4-2.1h10.2l8.9,1.3L78.6,47.5z"/>
<path class="st1" d="M28.9,37.3L18.7,47.5h10.2l10.2-10.2L28.9,37.3z"/>
<path class="st1" d="M49.3,37.3L39.1,47.5h10.2l10.2-10.2L49.3,37.3z"/>
<path class="st1" d="M77.4,37.3h-7.6L59.5,47.5h10.2l8.9-8.9C78.6,37.9,78.1,37.3,77.4,37.3L77.4,37.3z"/>
<path class="st2" d="M9.8,37.3h2.5v10.2H9.8V37.3z"/>
<path class="st1" d="M10.4,27.5l0.5,3.1l2.2,2.7l3.1-8.5L10.4,27.5z"/>
<path class="st3" d="M10.4,27.5l-1.2,0.5c-0.6,0.3-0.9,1.1-0.6,1.7l3.2,6.9l1.2-3.4L10.4,27.5z"/>
<path class="st4" d="M12.3,43.7c-2.1,0-3.8-1.7-3.8-3.8V36c0-2.1,1.7-3.8,3.8-3.8s3.8,1.7,3.8,3.8v3.8C16.2,42,14.4,43.7,12.3,43.7z
	"/>
<path class="st1" d="M68.4,61.5H20c-0.7,0-1.3-0.6-1.3-1.3V59c0-0.7,0.6-1.3,1.3-1.3h48.4c0.7,0,1.3,0.6,1.3,1.3v1.3
	C69.7,61,69.1,61.5,68.4,61.5z"/>
<path class="st1" d="M68.4,73H20c-0.7,0-1.3-0.6-1.3-1.3v-1.3c0-0.7,0.6-1.3,1.3-1.3h48.4c0.7,0,1.3,0.6,1.3,1.3v1.3
	C69.7,72.4,69.1,73,68.4,73z"/>
</svg>
