<?xml version="1.0" encoding="utf-8"?>
<!-- Generator: Adobe Illustrator 22.0.0, SVG Export Plug-In . SVG Version: 6.00 Build 0)  -->
<svg version="1.1" id="Capa_1" xmlns="http://www.w3.org/2000/svg" xmlns:xlink="http://www.w3.org/1999/xlink" x="0px" y="0px"
	 viewBox="0 0 146 482" style="enable-background:new 0 0 146 482;" xml:space="preserve">
<style type="text/css">
	.st0{fill:#DA4A54;}
	.st1{fill:#C32430;}
	.st2{fill:#DBD7E0;}
</style>
<path class="st0" d="M33.3,263.8l38,201.1l-59.5,15.7l-12,3.2v-512l10.5,2.3L127.9,0c0,0,7.7,27.7,8.5,66.3
	C137.7,126.8,122,214.1,33.3,263.8z"/>
<path class="st1" d="M36.5,449.5L12,474l-12,3.2v-512l10.5,2.3l22.2,49.9c0,0,6.3,173.2-14.9,232.1c-1,2.9-2.1,5.4-3.3,7.7l0.9,7.7
	L36.5,449.5z"/>
<path class="st2" d="M51.5,257.2c0,4.3-3.5,7.7-7.7,7.7H0v-15.5h43.8C48.1,249.5,51.5,252.9,51.5,257.2z"/>
<g>
	<path class="st1" d="M43.8,230.7c-2.2,0-4.4-0.9-5.9-2.8c-2.7-3.3-2.3-8.1,1-10.9C104.4,162,88.7,44,88.5,42.8
		c-0.6-4.2,2.4-8.1,6.6-8.7c4.2-0.6,8.1,2.4,8.7,6.6c0.2,1.3,4.4,32.1-0.1,70.7c-6,51.7-25,92.4-55,117.5
		C47.3,230.1,45.6,230.7,43.8,230.7z"/>
	<path class="st1" d="M46.9,186.4c-0.9,0-1.7-0.1-2.6-0.5c-4-1.4-6.1-5.9-4.7-9.9c19.1-53.4,0-127.6-0.2-128.3
		c-1.1-4.1,1.4-8.4,5.5-9.4c4.1-1.1,8.3,1.4,9.4,5.5c0.8,3.2,20.5,79.5-0.2,137.5C53.1,184.4,50.1,186.4,46.9,186.4L46.9,186.4z"/>
</g>
<path class="st1" d="M12.6-1.2c23.1,26.1,68.1,48.3,123.9,60.6c-0.8-39.2-8.6-60.6-8.6-60.6H12.6z"/>
</svg>
